<?xml version="1.0" standalone="no"?>
<!DOCTYPE svg PUBLIC "-//W3C//DTD SVG 20010904//EN"
 "http://www.w3.org/TR/2001/REC-SVG-20010904/DTD/svg10.dtd">
<svg version="1.0" xmlns="http://www.w3.org/2000/svg"
 width="500.000000pt" height="500.000000pt" viewBox="0 0 500.000000 500.000000"
 preserveAspectRatio="xMidYMid meet">

<g transform="translate(0.000000,500.000000) scale(0.100000,-0.100000)"
fill="#000000" stroke="none">
<path d="M2325 4450 c-267 -19 -580 -122 -834 -276 -455 -276 -784 -741 -896
-1267 -34 -159 -51 -437 -36 -592 66 -678 484 -1277 1097 -1576 225 -110 449
-170 707 -191 475 -37 944 101 1333 392 365 275 643 717 734 1168 40 201 45
535 10 735 -136 778 -747 1407 -1530 1576 -169 36 -359 46 -585 31z m1230
-992 c-22 -89 -60 -318 -54 -318 5 0 31 9 59 20 30 12 50 15 50 9 0 -6 -22
-92 -50 -192 -27 -99 -50 -184 -50 -189 0 -4 27 -8 60 -8 l60 0 0 -450 0 -450
-160 0 -160 0 0 450 0 450 65 0 65 0 1 -52 c1 -34 7 -7 15 77 8 72 13 142 12
156 l-3 27 -72 -28 -73 -28 1 26 c0 15 15 126 32 246 l32 219 80 28 c99 34 97
34 90 7z m-456 -339 c35 -5 76 -16 92 -24 l28 -15 -37 -108 c-28 -78 -41 -106
-52 -103 -8 2 -39 6 -67 9 -66 6 -98 -13 -112 -65 -18 -65 -21 -63 99 -63
l110 0 0 -120 0 -120 -105 0 -105 0 0 -315 0 -315 -160 0 -160 0 0 315 0 315
-27 0 c-27 0 -32 -10 -158 -315 l-129 -315 -165 2 -164 3 -183 445 c-101 245
-184 446 -184 448 0 1 73 2 163 2 l162 0 105 -269 c57 -148 107 -268 111 -266
3 2 55 124 115 270 l109 265 128 0 127 0 0 40 c0 58 35 141 81 193 82 94 219
132 378 106z"/>
<path d="M3432 2630 c0 -19 2 -27 5 -17 2 9 2 25 0 35 -3 9 -5 1 -5 -18z"/>
</g>
</svg>
